<?xml version="1.0" encoding="utf-8"?>
<!-- Generator: Adobe Illustrator 24.2.3, SVG Export Plug-In . SVG Version: 6.00 Build 0)  -->
<svg version="1.1" id="Layer_1" xmlns="http://www.w3.org/2000/svg" xmlns:xlink="http://www.w3.org/1999/xlink" x="0px" y="0px"
	 viewBox="0 0 195.8 195.8" style="enable-background:new 0 0 195.8 195.8;" xml:space="preserve">
<style type="text/css">
	.st0{fill:#FFFFFF;}
</style>
<polygon class="st0" points="106.6,156.7 106.6,129.2 89.3,129.2 89.3,156.7 70.2,156.7 98.3,189.8 126.4,156.7 "/>
<path class="st0" d="M70.8,80.7c-1.2,0-2.1,0.1-2.5,0.2v8c0.5,0.1,1.2,0.2,2,0.2c3.2,0,5.2-1.6,5.2-4.4
	C75.5,82.1,73.8,80.7,70.8,80.7z"/>
<path class="st0" d="M96.3,80.7c-1.4,0-2.2,0.1-2.8,0.2v17.6c0.5,0.1,1.4,0.1,2.1,0.1c5.5,0,9.1-3,9.1-9.4
	C104.9,83.7,101.6,80.7,96.3,80.7z"/>
<path class="st0" d="M153.4,60.1V45.4c0-0.8-0.3-1.6-0.9-2.1L116.6,6.9c-0.5-0.6-1.4-0.9-2.1-0.9H45.8c-1.7,0-3,1.3-3,3v51.1h-9.4
	v59.6h9.4v25.2c0,1.7,1.3,3,3,3h38.5v-6H48.8v-22.2h98.6v22.2h-35.8v6h38.8c1.7,0,3-1.3,3-3v-25.2h9.1V60.1H153.4z M117.4,16.3
	l25.7,26.1h-25.7C117.4,42.4,117.4,16.3,117.4,16.3z M79.1,90.9c-2.1,2-5.2,2.8-8.8,2.8c-0.8,0-1.5,0-2.1-0.1v9.6h-6V76.6
	c1.9-0.3,4.5-0.6,8.2-0.6c3.8,0,6.4,0.7,8.2,2.2c1.7,1.4,2.9,3.6,2.9,6.2S80.7,89.3,79.1,90.9z M106.8,100
	c-2.8,2.4-7.2,3.5-12.4,3.5c-3.2,0-5.4-0.2-6.9-0.4V76.6c2.2-0.4,5.2-0.6,8.2-0.6c5.1,0,8.4,0.9,11,2.9c2.8,2.1,4.6,5.4,4.6,10.2
	C111.3,94.3,109.4,97.8,106.8,100z M133.8,81.3h-10.4v6.2h9.7v5h-9.7v10.8h-6.1v-27h16.5L133.8,81.3L133.8,81.3z M147.4,60.1H48.8
	V12h62.7v33.4c0,1.7,1.3,3,3,3h32.9V60.1z"/>
</svg>
